<svg xmlns="http://www.w3.org/2000/svg" viewBox="0 0 48 48" width="48" height="48">
  <defs>
    <linearGradient id="rateviaGrad" x1="0%" y1="0%" x2="100%" y2="100%">
      <stop offset="0%" stop-color="#0052FF" />
      <stop offset="100%" stop-color="#2563EB" />
    </linearGradient>
  </defs>
  <rect x="2" y="2" width="44" height="44" rx="11" fill="url(#rateviaGrad)" />
  <!-- Crisp Ratevia Sparkle Brand Mark -->
  <g transform="translate(12, 12)" stroke="#FFFFFF" stroke-width="2.2" stroke-linecap="round" stroke-linejoin="round" fill="none">
    <path d="M9.937 15.5A2 2 0 0 0 8.5 14.063l-6.135-1.582a.5.5 0 0 1 0-.962L8.5 9.936A2 2 0 0 0 9.937 8.5l1.582-6.135a.5.5 0 0 1 .963 0L14.063 8.5A2 2 0 0 0 15.5 9.937l6.135 1.581a.5.5 0 0 1 0 .964L15.5 14.063a2 2 0 0 0-1.437 1.437l-1.582 6.135a.5.5 0 0 1-.963 0z"/>
    <path d="M20 3v4"/>
    <path d="M22 5h-4"/>
    <circle cx="4" cy="18" r="0.8" fill="#FFFFFF" stroke="none" />
  </g>
</svg>
